<?xml version="1.0" encoding="UTF-8"?>
<svg id="Layer_2" data-name="Layer 2" xmlns="http://www.w3.org/2000/svg" viewBox="0 0 376.21 82.83">
  <defs>
    <style>
      .cls-1 {
        stroke-width: 0px;
      }
    </style>
  </defs>
  <g id="Layer_1-2" data-name="Layer 1">
    <g>
      <path class="cls-1" d="m51.64,2.76c-22.94,8.86-25.04,31.53-31.62,42.13C13.36,55.58-1.9,61.52.2,67s17.36-.37,29.42,3.11c11.97,3.47,28.6,18.82,51.54,10.05,11.7-4.48,20.19-13.8,24.03-24.76.46-1.19-.37-2.47-1.64-2.56-.73-.09-1.55.37-1.83,1.01-3.56,7.04-9.59,12.88-17.45,15.9-13.07,5.03-27.32,1.1-36.09-8.86-2.01-2.28-3.66-4.84-5.03-7.68-.37-.82-.73-1.55-1.01-2.38s-.55-1.64-.82-2.47c6.94-3.2,14.89-6.67,23.85-10.14,8.86-3.38,16.9-6.21,24.03-8.41,4.84-1.46,9.32-2.74,13.34-3.75.27-.09.55-.18.82-.18.64-.18,1.19.18,1.46.73h0c.09.37.27.73.37,1.01.82,2.28,1.37,4.57,1.74,6.85.18,1.01,1.28,1.55,2.19,1.1,3.29-1.74,6.31-3.47,9.05-5.21,10.05-6.21,15.63-11.51,14.44-14.44-1.1-3.02-8.77-3.2-20.38-1.01-3.66.64-7.77,1.55-12.15,2.74-.73.18-1.55.37-2.28.64-3.75,1.01-7.58,2.1-11.7,3.38-7.58,2.38-15.72,5.21-24.03,8.41-7.86,3.02-15.26,6.12-22.11,9.32-.09-13.25,7.86-25.77,20.93-30.79,7.95-3.02,16.27-2.83,23.58.09.73.27,1.55.09,2.1-.46.82-.91.55-2.38-.55-3.02C75.86-.52,63.34-1.8,51.64,2.76Z"/>
      <g>
        <path class="cls-1" d="m159,73.06V9.43c0-.8.57-1.37,1.49-1.37h21.51c23.12,0,35.48,14.65,35.48,33.19s-12.36,33.19-35.48,33.19h-21.51c-.8,0-1.49-.57-1.49-1.37Zm22.89-11.9c13.05,0,19.68-6.98,19.68-19.91s-6.75-19.91-19.68-19.91h-7.21v39.94h7.21v-.11Z"/>
        <path class="cls-1" d="m228.47,72.83l23-63.74c.34-.8,1.14-1.14,1.83-1.14h13.5c.8,0,1.6.34,1.83,1.14l23,63.74c.34.92-.11,1.6-1.14,1.6h-13.27c-.8,0-1.37-.23-1.72-1.14l-2.98-8.93h-24.95l-2.98,8.93c-.34.8-.92,1.14-1.72,1.14h-13.16c-1.03,0-1.72-.69-1.26-1.6Zm39.6-21.74l-8.01-24.03-8.01,24.03h16.02Z"/>
        <path class="cls-1" d="m304.68,41.47c0-19.23,16.02-34.33,35.7-34.33s35.82,14.99,35.82,34.33-16.02,34.22-35.82,34.22-35.7-14.99-35.7-34.22Zm35.7,19.45c11.33,0,19.8-8.47,19.8-19.45s-8.58-19.57-19.8-19.57-19.8,8.35-19.8,19.57,8.58,19.45,19.8,19.45Z"/>
      </g>
    </g>
  </g>
</svg>