<svg id="Layer_2" data-name="Layer 2" xmlns="http://www.w3.org/2000/svg" viewBox="0 0 355.09 92.47"><defs><style>.cls-1{stroke-width:0}</style></defs><g id="Layer_1-2" data-name="Layer 1"><path class="cls-1" d="M56.54 3.02C31.42 12.7 29.12 37.5 21.92 49.08 14.63 60.8-2.07 67.26.21 73.23c2.28 5.97 19-.44 32.23 3.37 13.07 3.77 31.3 20.65 56.42 10.97 12.8-4.93 22.06-15.08 26.32-27.11.46-1.29-.4-2.67-1.76-2.8-.84-.08-1.66.36-2.04 1.13-3.85 7.71-10.47 14.06-19.12 17.39-14.29 5.51-29.92 1.18-39.51-9.66a35.882 35.882 0 0 1-5.52-8.36c-.4-.85-.79-1.72-1.13-2.62-.34-.9-.63-1.8-.9-2.7 7.55-3.53 16.26-7.28 26.14-11.08 9.68-3.73 18.5-6.76 26.35-9.18a292.74 292.74 0 0 1 15.51-4.35c.66-.17 1.35.19 1.59.83.14.39.27.77.4 1.16.87 2.47 1.52 4.96 1.95 7.46.19 1.09 1.38 1.69 2.35 1.16 3.61-1.94 6.91-3.84 9.85-5.66 10.98-6.79 17.07-12.55 15.82-15.82-1.25-3.27-9.61-3.45-22.3-1.12-4.03.74-8.5 1.74-13.32 2.97-.83.21-1.68.43-2.53.66-4.06 1.08-8.33 2.32-12.79 3.7-8.28 2.58-17.17 5.66-26.34 9.2-8.58 3.31-16.71 6.74-24.17 10.16-.09-14.51 8.64-28.22 22.93-33.73 8.65-3.33 17.8-3.06 25.8.08.79.31 1.69.1 2.27-.53a2.1 2.1 0 0 0-.56-3.26C82.97-.58 69.32-1.9 56.52 3.03zM165.33 57.52V1.91c0-.75.52-1.24 1.3-1.24h18.8c20.19 0 31.02 12.78 31.02 29.05s-10.83 29.05-31.02 29.05h-18.8c-.78 0-1.3-.5-1.3-1.25zm19.93-10.37c11.35 0 17.24-6.14 17.24-17.43s-5.89-17.43-17.24-17.43h-6.24v34.86h6.24zM225.99 57.35l20.1-55.69c.26-.66.95-1 1.65-1h11.78c.69 0 1.39.33 1.65 1l20.1 55.69c.35.83-.09 1.41-1.04 1.41h-11.61c-.69 0-1.21-.25-1.47-1l-2.6-7.8h-21.83l-2.6 7.8c-.26.75-.78 1-1.47 1h-11.52c-.95 0-1.47-.58-1.13-1.41zm34.66-19-7.02-21-7.02 21h14.04zM292.62 29.96C292.62 13.12 306.65 0 323.81 0s31.28 13.11 31.28 29.96-14.04 29.88-31.28 29.88-31.19-13.11-31.19-29.88zm31.19 17.01c9.88 0 17.33-7.39 17.33-17.01s-7.45-17.1-17.33-17.1-17.33 7.3-17.33 17.1 7.54 17.01 17.33 17.01z"/><g><path class="cls-1" d="M166.31 83.29c0-3.02 2.12-5.35 5.21-5.35s4.85 2.33 4.85 4.87c0 .84-.17 1.22-.86 1.22h-7.35c.23 1.85 1.55 3.15 3.82 3.15 1.13 0 1.99-.31 2.79-.88.13-.08.25-.08.34.02l.46.65c.15.17.08.29-.08.44-.9.88-2.23 1.32-3.67 1.32-3.36 0-5.5-2.42-5.5-5.44zm8.38-.67c-.1-1.85-1.32-3.06-3.17-3.06s-3.15 1.15-3.36 3.06h6.53zM182.64 88.23l-3.84-9.68c-.08-.23 0-.36.23-.36h1.34c.17 0 .27.08.34.25l2.98 7.89 2.98-7.89c.06-.17.17-.25.34-.25h1.34c.23 0 .31.13.23.36l-3.84 9.68c-.06.17-.21.25-.38.25h-1.34c-.17 0-.31-.08-.38-.25zM192.27 88.19v-9.7c0-.19.1-.29.29-.29h1.24c.21 0 .29.08.29.31l.04 1.16c.52-.97 1.43-1.72 2.92-1.72 1.41 0 2.46.65 3 1.97.52-1.11 1.51-1.97 3.21-1.97 2.14 0 3.44 1.41 3.44 4.12v6.13c0 .19-.1.29-.29.29h-1.32c-.19 0-.27-.1-.27-.29v-5.84c0-1.7-.67-2.67-2.08-2.67s-2.31.99-2.31 2.67v5.84c0 .19-.08.29-.27.29h-1.32c-.19 0-.29-.1-.29-.29v-5.84c0-1.7-.76-2.67-2.14-2.67s-2.25.99-2.25 2.67v5.84c0 .19-.08.29-.27.29h-1.32c-.19 0-.29-.1-.29-.29zM210.46 83.34c0-3.07 2.29-5.4 5.31-5.4s5.29 2.33 5.29 5.4-2.27 5.4-5.29 5.4-5.31-2.33-5.31-5.4zm5.31 3.63c1.97 0 3.46-1.47 3.46-3.63s-1.49-3.65-3.46-3.65-3.46 1.49-3.46 3.65 1.47 3.63 3.46 3.63zM224.29 87.14c-.15-.17-.13-.34 0-.55l.42-.59c.15-.19.34-.19.5-.02.69.67 1.45 1.11 2.48 1.11s1.81-.46 1.81-1.41c0-.84-.55-1.22-1.47-1.6l-1.24-.53c-1.26-.53-2.29-1.32-2.29-2.77 0-1.79 1.51-2.86 3.28-2.86 1.22 0 2.35.5 3.13 1.47.13.15.08.32-.02.44l-.5.59c-.17.21-.31.19-.5 0-.65-.65-1.3-.94-2.02-.94-.86 0-1.55.44-1.55 1.26 0 .86.63 1.2 1.55 1.55l1.13.46c1.32.55 2.39 1.36 2.37 2.96 0 1.95-1.68 3-3.59 3-1.68 0-2.83-.8-3.49-1.6zM234.26 87.49c0-.69.57-1.26 1.26-1.26s1.26.57 1.26 1.26-.57 1.26-1.26 1.26-1.26-.54-1.26-1.26zM239.96 83.32c0-3.07 2.31-5.38 5.38-5.38 1.64 0 3 .67 3.88 1.74.13.17.13.32 0 .44l-.73.69c-.17.19-.36.12-.48 0-.63-.67-1.39-1.13-2.6-1.13-2.08 0-3.59 1.51-3.59 3.63s1.51 3.65 3.63 3.65c1.2 0 1.95-.44 2.56-1.09.15-.15.34-.21.5-.04l.73.71c.13.13.13.27 0 .42-.88 1.09-2.25 1.76-3.91 1.76-3.07 0-5.38-2.33-5.38-5.42zM252.15 83.34c0-3.07 2.29-5.4 5.31-5.4s5.29 2.33 5.29 5.4-2.27 5.4-5.29 5.4-5.31-2.33-5.31-5.4zm5.31 3.63c1.97 0 3.46-1.47 3.46-3.63s-1.49-3.65-3.46-3.65-3.46 1.49-3.46 3.65 1.47 3.63 3.46 3.63zM266.51 88.19v-9.7c0-.19.11-.29.29-.29h1.24c.21 0 .29.08.29.31l.04 1.16c.53-.97 1.43-1.72 2.92-1.72 1.41 0 2.46.65 3 1.97.52-1.11 1.51-1.97 3.21-1.97 2.14 0 3.44 1.41 3.44 4.12v6.13c0 .19-.1.29-.29.29h-1.32c-.19 0-.27-.1-.27-.29v-5.84c0-1.7-.67-2.67-2.08-2.67s-2.31.99-2.31 2.67v5.84c0 .19-.08.29-.27.29h-1.32c-.19 0-.29-.1-.29-.29v-5.84c0-1.7-.76-2.67-2.14-2.67s-2.25.99-2.25 2.67v5.84c0 .19-.08.29-.27.29h-1.32c-.19 0-.29-.1-.29-.29zM285.23 88.19v-9.7c0-.19.11-.29.29-.29h1.24c.21 0 .29.08.29.31l.04 1.16c.52-.97 1.43-1.72 2.92-1.72 1.41 0 2.46.65 3 1.97.53-1.11 1.51-1.97 3.21-1.97 2.14 0 3.44 1.41 3.44 4.12v6.13c0 .19-.11.29-.29.29h-1.32c-.19 0-.27-.1-.27-.29v-5.84c0-1.7-.67-2.67-2.08-2.67s-2.31.99-2.31 2.67v5.84c0 .19-.08.29-.27.29h-1.32c-.19 0-.29-.1-.29-.29v-5.84c0-1.7-.76-2.67-2.14-2.67s-2.25.99-2.25 2.67v5.84c0 .19-.08.29-.27.29h-1.32c-.19 0-.29-.1-.29-.29zM303.95 84.51v-6.03c0-.19.11-.29.29-.29h1.32c.19 0 .27.11.27.29v5.75c0 1.72.88 2.73 2.46 2.73s2.73-1.01 2.73-2.73v-5.75c0-.19.08-.29.27-.29h1.32c.19 0 .29.11.29.29v9.7c0 .19-.1.29-.29.29h-1.24c-.21 0-.27-.08-.29-.32l-.06-1.3c-.59 1.05-1.68 1.87-3.34 1.87-2.2 0-3.74-1.49-3.74-4.22zM317.19 88.19v-9.7c0-.19.1-.29.29-.29h1.24c.21 0 .29.08.29.31l.06 1.3c.59-1.05 1.68-1.87 3.34-1.87 2.21 0 3.74 1.49 3.74 4.2v6.05c0 .19-.11.29-.29.29h-1.32c-.19 0-.27-.1-.27-.29v-5.75c0-1.72-.88-2.75-2.46-2.75s-2.73 1.03-2.73 2.75v5.75c0 .19-.08.29-.27.29h-1.32c-.19 0-.29-.1-.29-.29zM330.27 74.62c0-.63.5-1.13 1.13-1.13s1.11.5 1.11 1.13-.48 1.13-1.11 1.13-1.13-.5-1.13-1.13zm.19 3.86c0-.19.08-.29.27-.29h1.32c.19 0 .29.11.29.29v9.7c0 .19-.1.29-.29.29h-1.32c-.19 0-.27-.1-.27-.29v-9.7zM337.42 86.17v-6.45h-1.32c-.19 0-.31-.13-.31-.32v-.92c0-.19.13-.29.31-.29h1.32v-2.44c0-.19.1-.29.29-.29h1.32c.19 0 .27.1.27.29v2.44h1.72c.19 0 .29.11.29.29v.92c0 .19-.11.32-.29.32h-1.72v6.19c0 .76.34 1.05.95 1.05.17 0 .44-.02.65-.04.29-.02.4.08.4.29v.88c0 .4-.86.5-1.45.5-1.47 0-2.44-.73-2.44-2.44zM346.88 92.16l1.45-3.63-3.95-9.97c-.08-.23 0-.36.23-.36h1.34c.17 0 .27.08.34.25l2.98 7.89 2.98-7.89c.06-.17.19-.25.36-.25h1.32c.23 0 .34.13.25.36l-5.44 13.67c-.06.17-.19.25-.36.25h-1.3c-.21 0-.29-.13-.21-.31z"/></g></g></svg>