<svg width="70" height="16" viewBox="0 0 70 16" fill="none" xmlns="http://www.w3.org/2000/svg">
<g clip-path="url(#clip0_142_3693)">
<path d="M30.0737 0.271186V15.633C30.0737 15.7828 29.9512 15.9042 29.8002 15.9042H27.3792C27.2281 15.9042 27.1057 15.7828 27.1057 15.633V0.271186C27.1057 0.121414 27.2281 0 27.3792 0H29.8002C29.9512 0 30.0737 0.121414 30.0737 0.271186Z" fill="white"/>
<path d="M69.9118 0.271186V15.633C69.9118 15.7828 69.7894 15.9042 69.6383 15.9042H67.2173C67.0663 15.9042 66.9438 15.7828 66.9438 15.633V0.271186C66.9438 0.121414 67.0663 0 67.2173 0H69.6383C69.7894 0 69.9118 0.121414 69.9118 0.271186Z" fill="white"/>
<path d="M9.06339 6.63983C7.71729 6.63983 6.37062 6.62789 5.02452 6.63983C3.90161 6.65007 2.85599 5.80349 2.85599 4.65842C2.85599 3.89314 3.32199 3.23532 4.00543 2.8976C4.37684 2.71395 4.74941 2.67984 5.13467 2.67415H15.1462C15.2972 2.67415 15.4196 2.55274 15.4196 2.40297V0.289613C15.4196 0.139841 15.2972 0.0184263 15.1462 0.0184263H10.7123H7.1394C5.65604 0.0184263 4.08905 -0.148729 2.71873 0.523873C1.64658 1.05036 0.799355 1.98051 0.39218 3.09261C0.208778 3.59408 0.115924 4.12568 0.115924 4.65842C0.115924 5.87171 0.611339 7.05147 1.48048 7.90999C1.84498 8.27045 2.27637 8.55701 2.74295 8.77363C3.41773 9.0869 4.11154 9.29386 4.8613 9.30011C5.64912 9.30693 6.43348 9.29442 7.22072 9.30068C8.5674 9.30068 9.91408 9.31319 11.2602 9.30068C12.3825 9.29044 13.4287 10.137 13.4287 11.2821C13.4287 12.0479 12.9621 12.7058 12.2787 13.0429C11.9073 13.2266 11.5341 13.2607 11.1483 13.2658H0.273438C0.122422 13.2658 2.03854e-09 13.3872 1.93628e-09 13.537L0 15.6509C-1.02266e-10 15.8007 0.122422 15.9221 0.273438 15.9221H6.1157C7.05347 15.9215 7.99124 15.9215 8.92844 15.9209C9.58995 15.9209 10.2515 15.9209 10.913 15.9204C11.7014 15.9192 12.4904 15.8794 13.2297 15.5838C13.8036 15.3541 14.3296 15.0113 14.7702 14.582C15.6595 13.7149 16.1682 12.5153 16.1682 11.2821C16.1682 8.79807 14.1831 6.78766 11.6945 6.64211C11.6945 6.64211 9.06224 6.64211 9.06339 6.63983Z" fill="white"/>
<path d="M50.3364 13.6652H44.2758C44.1248 13.6652 44.0024 13.5438 44.0024 13.394V9.3766C44.0024 9.22683 44.1248 9.10542 44.2758 9.10542C44.6404 9.10542 45.005 9.10542 45.3696 9.10542H46.9223C48.1048 9.10769 49.0049 9.10893 50.1892 9.10769C52.3706 9.10542 52.8951 10.1186 52.8951 11.2637C52.8951 12.0295 52.4532 13.6652 50.3364 13.6652ZM44.2758 2.38511H47.0187C48.2012 2.38738 48.8281 2.39932 50.0121 2.38738C51.0003 2.37715 52.1541 3.13046 52.1541 4.63999C52.1541 5.90745 51.3044 6.89487 49.9152 6.89487H44.2758C44.1248 6.89487 44.0024 6.77345 44.0024 6.62368V2.6563C44.0024 2.50652 44.1248 2.38511 44.2758 2.38511ZM53.4394 7.55162C54.74 6.8447 55.2729 5.27929 55.2729 3.98071C55.2729 1.41311 52.9528 0.103055 50.651 0.0509518C49.0366 0.0144083 47.4575 0 45.8407 0H43.3808H41.2847C41.1337 0 41.0112 0.121414 41.0112 0.271186V15.6325C41.0112 15.7822 41.1337 15.9037 41.2847 15.9037H50.4475C54.7416 15.9037 55.7184 14.3003 55.9776 11.8049C55.9969 11.6258 56.0091 11.4444 56.006 11.2637C55.9776 9.5595 54.8616 7.94315 53.4394 7.55162Z" fill="white"/>
</g>
<defs>
<clipPath id="clip0_142_3693">
<rect width="70" height="16" fill="white"/>
</clipPath>
</defs>
</svg>
