<svg width="1873" height="711" viewBox="0 0 1873 711" fill="white"
    xmlns="http://www.w3.org/2000/svg">
    <path d="M1623 0V250H1873V0H1623ZM1645.73 22.7273H1850.27V227.273H1645.73V22.7273ZM1696.86 68.1818L1736.64 136.364V193.182H1759.36V136.364L1799.14 68.1818H1776.41L1748 116.83L1719.59 68.1818H1696.86Z" fill="white"/>
    <g clip-path="url(#clip0_111_39)">
        <path d="M356.525 648.442C345.001 639.037 335.852 627.977 327.848 615.954C314.777 596.318 306.093 574.976 301.552 551.705C298.258 534.825 297.022 517.889 298.029 500.907C299.709 472.563 305.919 445.141 320.349 420.368C326.63 409.584 334.224 399.42 342.233 389.819C359.499 369.12 381.704 355.458 407.396 347.792C416.905 344.956 426.868 343.408 436.73 342.038C458.826 338.97 480.311 341.984 501.199 349.675C517.354 355.623 531.652 364.607 544.55 375.93C547.401 378.433 550.352 380.823 553.738 383.67C553.738 372.263 553.738 361.337 553.738 350.08C581.448 350.08 608.749 350.08 636.338 350.08C636.338 458.542 636.338 566.977 636.338 675.678C609.038 675.678 581.851 675.678 554.107 675.678C554.107 665.067 554.107 654.318 554.107 642.492C546.904 648.513 540.698 653.986 534.193 659.078C519.579 670.519 502.926 677.602 484.922 681.82C470.502 685.198 455.8 685.708 441.278 684.5C411.625 682.032 384.955 671.25 361.62 652.573C360.003 651.279 358.388 649.983 356.525 648.442ZM554.871 535.309C555.514 531.879 556.65 528.458 556.712 525.017C556.932 512.939 557.562 500.873 554.941 488.858C550.077 466.566 539.858 447.44 521.336 433.884C499.631 417.999 475.028 413.304 448.775 418.954C423.172 424.464 404.834 439.683 392.753 462.734C380.957 485.241 378.404 509.29 382.838 533.795C386.929 556.402 397.107 576.118 415.657 590.836C428.464 600.998 442.953 607.378 459.025 608.508C474.536 609.598 490.037 609.01 504.668 601.442C515.554 595.811 525.278 589.269 533.495 580.12C544.884 567.44 551.288 552.535 554.871 535.309Z" fill="white"/>
        <path d="M1085.42 487.35C1088.66 474.841 1091.19 462.53 1095.26 450.753C1101.16 433.669 1110.5 418.317 1121.89 404.248C1138.74 383.453 1159.24 367.339 1183.56 356.195C1197.89 349.631 1212.75 344.538 1228.51 343.017C1240.33 341.876 1252.29 340.58 1264.09 341.214C1284.79 342.325 1304.81 347.142 1323.94 355.538C1345.27 364.903 1364.02 377.886 1379.99 394.764C1400.14 416.069 1413.72 441.031 1421.31 469.439C1426.59 489.171 1427 509.238 1425.83 529.243C1424.72 548.149 1419.32 566.298 1411.81 583.814C1402.26 606.088 1388.4 625.278 1370.42 641.236C1361.46 649.195 1351.21 655.84 1341.03 662.257C1327.26 670.932 1311.95 676.078 1296.19 680.083C1277.44 684.848 1258.34 685.78 1239.3 684.481C1217.49 682.993 1196.49 677.116 1176.95 667.1C1163.62 660.27 1151.33 651.863 1140.08 641.755C1116.07 620.187 1100.01 593.81 1090.86 563.1C1086.85 549.633 1084.2 535.862 1084.39 521.683C1084.48 515.186 1084.28 508.685 1084.44 502.191C1084.56 497.385 1085.06 492.589 1085.42 487.35ZM1212.57 429.655C1196.54 438.806 1184.34 451.758 1176.67 468.401C1167.14 489.072 1164.77 510.83 1169.02 533.342C1172.83 553.557 1181.07 571.11 1196.53 585.224C1212.13 599.465 1230.73 605.566 1251.22 606.654C1257.84 607.006 1264.59 605.754 1271.23 604.83C1292.7 601.837 1309.88 590.85 1323.3 574.453C1334.68 560.56 1340.54 544.117 1342.53 526.061C1344.38 509.351 1342.71 493.266 1337.44 477.451C1331.81 460.529 1321.95 446.557 1307.49 436.075C1289.53 423.06 1269.46 417.939 1247.31 419.729C1235.19 420.708 1223.91 423.737 1212.57 429.655Z" fill="white"/>
        <path d="M262.726 352.996C260.832 357.007 258.977 361.037 257.036 365.026C248.195 383.193 239.277 401.323 230.524 419.532C229.054 422.589 227.424 423.958 223.723 423.868C210.916 423.558 198.097 423.749 185.283 423.749C183.705 423.749 182.128 423.749 180.085 423.749C180.085 425.621 180.085 427.036 180.085 428.45C180.085 478.912 179.932 529.374 180.2 579.835C180.261 591.406 183.548 602.306 192.83 610.242C199.84 616.236 208.034 618.214 217.269 617.02C227.884 615.647 237.337 611.621 246.503 605.1C250.123 616.188 253.596 626.615 256.922 637.089C259.171 644.173 261.149 651.342 263.374 658.434C264.347 661.536 263.723 663.564 261.006 665.718C250.761 673.843 238.63 677.544 226.361 680.705C209.412 685.072 191.977 685.714 174.672 684.506C158.598 683.384 143.151 679.331 129.519 669.791C113.033 658.254 103.829 642.1 100.503 622.882C98.2735 609.998 97.561 596.726 97.477 583.619C97.1495 532.511 97.3434 481.399 97.3434 430.288C97.3434 428.351 97.3434 426.414 97.3434 423.956C80.2235 423.956 63.2949 423.956 46.0619 423.956C46.0619 399.043 46.0619 374.652 46.0619 349.908C62.9774 349.908 79.7876 349.908 97.1143 349.908C97.1143 311.538 97.1143 273.514 97.1143 235.21C98.8385 235.06 100.074 234.86 101.31 234.859C126.128 234.84 150.945 234.827 175.763 234.892C177.177 234.896 178.59 235.583 179.667 236.55C178.615 239.224 177.288 241.298 177.279 243.376C177.148 276.596 177.127 309.817 177.312 343.036C177.325 345.259 179.182 347.472 180.181 349.69C180.181 349.69 180.119 349.71 180.279 350.001C183.275 351.083 186.104 352.529 188.95 352.562C213.54 352.851 238.134 352.885 262.726 352.996Z" fill="white"/>
        <path d="M1012.37 590.257C1012.37 618.948 1012.37 647.151 1012.37 675.65C985.045 675.65 958.065 675.65 930.842 675.65C930.842 525.295 930.842 375.096 930.842 224.515C957.749 224.515 984.73 224.515 1012.37 224.515C1012.37 346.198 1012.37 467.984 1012.37 590.257Z" fill="white"/>
        <path d="M1649.85 416.007C1641.72 415.342 1633.59 414.339 1625.44 414.111C1618.15 413.908 1611.97 417.251 1606.5 421.939C1595.75 431.156 1589.91 443.38 1586.97 456.732C1584.62 467.42 1583.09 478.503 1582.97 489.431C1582.29 550.533 1582.15 611.64 1581.82 672.746C1581.82 673.553 1581.82 674.36 1581.82 675.556C1554.37 675.556 1527.06 675.556 1499.42 675.556C1499.42 567.239 1499.42 458.795 1499.42 350.048C1523.15 350.048 1546.88 350.048 1570.99 350.048C1570.99 361.782 1570.99 373.39 1570.99 386.363C1575.4 380.065 1578.77 374.627 1582.75 369.681C1594.47 355.109 1608.65 344.686 1627.87 341.817C1646.84 338.986 1664.15 343.835 1681.14 351.238C1685.76 353.25 1690.29 355.455 1695.07 357.663C1687.89 372.491 1680.97 386.778 1673.4 401.27C1671.31 403.073 1669.66 404.525 1668.48 406.295C1665.76 410.408 1663.26 414.675 1660.52 418.578C1657.06 413.741 1654.86 413.267 1649.85 416.007Z" fill="white"/>
        <path d="M828.39 430.565C828.39 512.477 828.39 593.901 828.39 675.636C801.096 675.636 774.117 675.636 746.879 675.636C746.879 567.195 746.879 458.866 746.879 350.141C773.742 350.141 800.722 350.141 828.39 350.141C828.39 376.685 828.39 403.382 828.39 430.565Z" fill="white"/>
        <path d="M777.134 321.47C765.776 318.652 756.248 313.409 748.902 304.744C740.557 294.9 735.595 283.511 735.002 270.534C734.631 262.395 734.833 254.351 738.222 246.526C744.286 232.529 754.575 223.195 768.7 218.374C788.881 211.487 807.607 214.847 823.268 229.48C833.031 238.604 838.634 250.204 839.21 264.113C839.815 278.715 837.433 292.01 827.636 303.574C819.335 313.373 808.991 319.377 796.563 321.335C790.373 322.31 783.901 321.499 777.134 321.47Z" fill="white"/>
        <path d="M180.141 349.239C179.182 347.472 177.325 345.26 177.312 343.036C177.127 309.817 177.148 276.596 177.279 243.377C177.288 241.298 178.615 239.224 179.626 236.97C179.976 269.598 180.031 302.405 180.084 335.211C180.092 339.736 180.095 344.262 180.141 349.239Z" fill="white"/>
        <path d="M262.985 352.821C238.134 352.885 213.54 352.851 188.95 352.562C186.104 352.529 183.275 351.083 180.289 349.97C206.057 349.68 231.975 349.709 257.893 349.751C260.172 349.755 262.774 349.256 262.985 352.821Z" fill="white"/>
        <path d="M1660.67 418.88C1663.26 414.675 1665.76 410.408 1668.48 406.295C1669.66 404.524 1671.31 403.073 1673.1 401.436C1670.26 407.275 1667.12 413.182 1663.81 418.995C1663.46 419.602 1662.13 419.648 1660.97 419.62C1660.67 419.286 1660.67 418.88 1660.67 418.88Z" fill="white"/>
        <path d="M1660.52 418.578C1660.67 418.88 1660.67 419.286 1660.67 419.489C1657.18 418.669 1653.69 417.645 1650.02 416.314C1654.86 413.267 1657.06 413.741 1660.52 418.578Z" fill="white"/>
    </g>
    <defs>
        <clipPath id="clip0_111_39">
            <rect width="1722" height="519" fill="white" transform="translate(0 192)"/>
        </clipPath>
    </defs>
</svg>
