<svg width="140" height="54" viewBox="0 0 140 54" fill="none"
  xmlns="http://www.w3.org/2000/svg">
  <g clip-path="url(#clip0_26_13)">
    <path fill-rule="evenodd" clip-rule="evenodd" d="M2.06194 20.2745C2.68522 20.4867 3.35002 20.6073 4.04393 20.6073C4.6672 20.6073 5.26838 20.5117 5.83612 20.3391V36.7481C5.83612 37.328 6.14561 37.8684 6.64488 38.1582L22.3391 47.2835C23.0814 46.4108 24.1808 45.8554 25.4084 45.8554C26.7446 45.8554 27.927 46.5134 28.6639 47.5218C28.6769 47.5403 28.6909 47.5576 28.7039 47.5756C28.7557 47.6494 28.8041 47.7248 28.8511 47.8026L28.9049 47.891C28.9465 47.9626 28.9849 48.0355 29.0214 48.1093C29.0414 48.1489 29.0603 48.1891 29.0792 48.2294C29.1105 48.2978 29.14 48.3673 29.1681 48.4378C29.1881 48.4882 29.2059 48.5388 29.2237 48.5899C29.2462 48.6544 29.2684 48.7195 29.2873 48.7852C29.3056 48.8477 29.3202 48.9107 29.3359 48.9737L29.3762 49.1513C29.3918 49.23 29.4021 49.3097 29.4129 49.3902C29.4188 49.4379 29.428 49.4847 29.4323 49.5324C29.4448 49.6627 29.4523 49.7941 29.4523 49.9277C29.4523 50.1406 29.4313 50.3474 29.3994 50.5516L29.3881 50.6275C29.0576 52.5406 27.4007 54 25.4084 54C23.6318 54 22.1227 52.8386 21.5809 51.2314L4.7578 41.4502C3.08905 40.4806 2.06194 38.6876 2.06194 36.7481V20.2745ZM46.0991 10.2908C48.3291 10.2908 50.1428 12.1173 50.1428 14.3631C50.1428 15.5848 49.6037 16.6794 48.755 17.4265V36.7481C48.755 38.6876 47.7279 40.4806 46.0591 41.4502L31.6051 49.8539C31.5889 48.479 31.1274 47.2135 30.3619 46.1876L44.1722 38.1582C44.6713 37.8684 44.9809 37.328 44.9809 36.7481V18.2736C43.2938 17.7838 42.0554 16.2179 42.0554 14.3631C42.0554 13.4601 42.3524 12.6277 42.8485 11.9517C42.856 11.9409 42.8641 11.9306 42.8717 11.9197C42.9655 11.7948 43.0657 11.6743 43.1725 11.5608L43.187 11.545C43.4086 11.3127 43.6567 11.1079 43.9274 10.9337C43.9553 10.9152 43.985 10.8984 44.0136 10.8804C44.1209 10.8158 44.2303 10.755 44.3435 10.7002C44.3765 10.6844 44.4094 10.6671 44.4427 10.6519C44.5846 10.5878 44.7291 10.5286 44.879 10.4814C44.8796 10.4814 44.879 10.4819 44.879 10.4814L45.173 10.3994C45.4705 10.3287 45.7805 10.2908 46.0991 10.2908ZM40.5727 19.0708V32.5386C40.5727 34.1339 39.7202 35.6206 38.3486 36.4181L27.5398 42.696L26.5424 43.2466L26.5543 42.0944V37.3194L35.4506 32.1471V27.4102L27.8779 25.24L40.5727 19.0708ZM10.2444 19.0627L15.3665 21.593V32.1467L24.1279 37.2409V43.1973L12.4684 36.4189C11.0968 35.6206 10.2444 34.1339 10.2444 32.5388V19.0627ZM23.1844 9.96788C24.5349 9.18328 26.2818 9.18328 27.6325 9.96788L39.4904 16.8956L38.3636 17.4327L33.9644 19.6061L25.4084 14.6315L16.8523 19.6061L11.3442 16.8843L12.4026 16.2425C12.4123 16.2338 12.4398 16.2153 12.4694 16.1985L23.1844 9.96788ZM25.4083 0C26.3394 0 27.27 0.242165 28.1041 0.72704L42.644 9.18112C41.5737 9.9076 40.7455 10.9637 40.2899 12.2006L26.217 4.01908C25.9718 3.87572 25.6919 3.80081 25.4083 3.80081C25.1248 3.80081 24.8454 3.87572 24.5995 4.01908L8.02283 13.6574C8.06272 13.887 8.08753 14.1216 8.08753 14.3632C8.08753 16.1154 6.98116 17.608 5.43643 18.1814C5.42457 18.1858 5.41217 18.1906 5.40031 18.1944C5.27792 18.2385 5.15392 18.2765 5.02666 18.3085L4.95065 18.328C4.83419 18.3551 4.71503 18.3764 4.59533 18.3931L4.49775 18.4079C4.3484 18.4246 4.19742 18.4356 4.04377 18.4356C3.87932 18.4356 3.71758 18.4225 3.55743 18.403C3.5143 18.3974 3.47225 18.3899 3.42965 18.3834C3.30673 18.3643 3.18595 18.34 3.06679 18.3101C3.03012 18.3008 2.99347 18.2921 2.95681 18.2819C2.64139 18.1922 2.3416 18.0679 2.06177 17.9088L1.82144 17.7607C0.725648 17.0318 0 15.7822 0 14.3632C0 12.1175 1.81431 10.2909 4.04377 10.2909C4.62229 10.2909 5.17117 10.4158 5.66881 10.6368L22.7124 0.72704C23.5465 0.242165 24.4777 0 25.4083 0Z" fill="white"/>
  </g>
  <g clip-path="url(#clip1_26_13)">
    <path d="M65.5002 11.4781H70.7119V24.0544H75.0014V11.4781H80.213V7.31461H65.5002V11.4781Z" fill="white"/>
    <path d="M93.4981 7.31461V13.8174H86.6779V7.31461H82.4099V24.0544H86.6779V17.8306H93.4981V24.0544H97.7875V7.31461H93.4981Z" fill="white"/>
    <path d="M101.013 24.0544H113.86V19.9124H105.302V17.7663H112.337V13.8818H105.302V11.4781H113.86V7.31461H101.013V24.0544Z" fill="white"/>
    <path d="M73.8324 40.435H77.8497V40.8898C77.0633 42.0057 75.7879 42.7291 74.3 42.7291C71.7919 42.7291 69.7939 40.7864 69.7939 38.3478C69.7939 35.9092 71.7919 33.9665 74.3 33.9665C75.7454 33.9665 77.0207 34.6072 77.8497 35.6199L81.3144 33.3466C79.7202 31.3213 77.1483 29.9778 74.3 29.9778C69.4963 29.9778 65.5002 33.7391 65.5002 38.3478C65.5002 42.9565 69.4963 46.7177 74.3 46.7177C76.0005 46.7177 77.6797 46.0977 78.4874 44.899V46.4078H81.8244V37.0045H73.8324V40.435Z" fill="white"/>
    <path d="M95.3753 30.2879V39.1125C95.3753 41.4477 94.2063 42.7291 91.9745 42.7291C89.7639 42.7291 88.6161 41.4477 88.6161 39.1125V30.2879H84.365V39.3605C84.365 43.5144 87.0007 46.7177 91.9745 46.7177C96.927 46.7177 99.6052 43.5144 99.6052 39.3605V30.2879H95.3753Z" fill="white"/>
    <path d="M102.558 30.2879V46.4078H106.809V30.2879H102.558Z" fill="white"/>
    <path d="M109.993 46.4078H122.173V42.419H114.223V30.2879H109.993V46.4078Z" fill="white"/>
    <path d="M124.362 46.4078H132.056C137.242 46.4078 139.899 42.7497 139.899 38.3478C139.899 33.9665 137.242 30.2879 132.056 30.2879H124.362V46.4078ZM131.737 34.2972C134.267 34.2972 135.606 35.9298 135.606 38.3478C135.606 40.7659 134.267 42.419 131.737 42.419H128.613V34.2972H131.737Z" fill="white"/>
  </g>
  <defs>
    <clipPath id="clip0_26_13">
      <rect width="51" height="54" fill="white"/>
    </clipPath>
    <clipPath id="clip1_26_13">
      <rect width="75" height="40" fill="white" transform="translate(65 7)"/>
    </clipPath>
  </defs>
</svg>
