<svg width="122" height="13" viewBox="0 0 122 13" fill="none"
    xmlns="http://www.w3.org/2000/svg">
    <path fill-rule="evenodd" clip-rule="evenodd" d="M4.76004 1.42465C4.12249 1.61722 3.53001 1.93561 3.01758 2.36101C2.8029 1.99501 2.46134 1.72053 2.05769 1.58963C2.69491 1.01641 3.44414 0.581637 4.25799 0.312758C5.07185 0.0438946 5.93264 -0.0532128 6.78595 0.0276043C7.63925 0.108406 8.46652 0.36535 9.21543 0.782207C9.40492 0.887684 9.58835 1.00282 9.76506 1.12702C9.77111 1.1244 9.77717 1.12183 9.78328 1.1193C10.0126 1.02432 10.265 0.999471 10.5085 1.04791C10.752 1.09636 10.9756 1.21591 11.1512 1.39145C11.3267 1.56699 11.4462 1.79064 11.4946 2.03411C11.543 2.27759 11.5182 2.52996 11.4231 2.75928C11.3281 2.98862 11.1672 3.18462 10.9608 3.3225C10.7543 3.46041 10.5117 3.53399 10.2634 3.53396C10.0986 3.53396 9.93536 3.50148 9.78309 3.43841C9.63082 3.37533 9.49247 3.28289 9.37592 3.16634C9.25938 3.04978 9.16693 2.91143 9.10388 2.75916C9.04083 2.60688 9.00839 2.44368 9.0084 2.27887C9.0084 2.2145 9.01335 2.1505 9.02309 2.08742C8.89169 1.99716 8.75578 1.9131 8.61582 1.8356C8.03317 1.51299 7.39178 1.31039 6.72953 1.23981C6.06728 1.16923 5.3976 1.23208 4.76004 1.42465ZM2.78209 3.23274C2.78209 3.46904 2.71537 3.70029 2.58996 3.9L2.84725 4.34506C2.59765 4.64188 2.25527 4.84589 1.87543 4.92409L1.62103 4.48412C1.50831 4.49258 1.39437 4.48583 1.28232 4.46355C1.03888 4.41515 0.81526 4.29564 0.639738 4.12015C0.464216 3.94467 0.34468 3.72107 0.296243 3.47766C0.24779 3.23425 0.272621 2.98192 0.367589 2.75262C0.462542 2.52331 0.62337 2.32731 0.829737 2.18939C1.0361 2.05149 1.27873 1.97786 1.52693 1.97782C1.69175 1.9778 1.85495 2.01024 2.00724 2.0733C2.15953 2.13635 2.2979 2.22879 2.41444 2.34532C2.531 2.46185 2.62346 2.6002 2.68654 2.75246C2.74961 2.90473 2.78209 3.06793 2.78209 3.23274ZM1.87547 4.92412L4.03929 8.66655L4.69173 9.79657L5.34431 8.66655L6.15783 7.25768L6.96913 8.66148L7.62121 9.79116L8.27364 8.66131L9.36806 6.76517H11.1555C11.1767 6.57758 11.1874 6.38895 11.1874 6.20016C11.1875 6.01137 11.1767 5.82273 11.1553 5.63515H8.71547L8.60205 5.83155L7.62089 7.53079L6.80957 6.12681L6.15715 4.9968L5.50573 6.12698L4.69173 7.53586L2.84736 4.34509C2.59774 4.64191 2.25535 4.84592 1.87547 4.92412ZM11.1874 6.20005C11.1874 6.38884 11.1767 6.57748 11.1555 6.76506H12.3555V5.63504H11.1555C11.1769 5.82263 11.1875 6.01126 11.1874 6.20005ZM12.3559 5.63515H12.3741C12.3909 5.82123 12.4 6.00968 12.4 6.20016C12.4 9.62399 9.62499 12.4 6.20042 12.4C2.77587 12.4 6.77087e-06 9.62433 6.77087e-06 6.20049C-0.000892229 5.59363 0.0877368 4.98996 0.263011 4.40896C0.550148 4.71811 0.940794 4.9111 1.36081 4.95132C1.2687 5.35003 1.21259 5.81345 1.21259 6.20016C1.21259 8.95386 3.44502 11.1874 6.20059 11.1874C8.76466 11.1874 10.8753 9.25335 11.1558 6.76517H12.3559V5.63515Z" fill="white"/>
    <path d="M18.251 10L16.1867 2.78544H17.853L19.0472 7.79829H19.1071L20.4246 2.78544H21.8513L23.1652 7.80886H23.2286L24.4229 2.78544H26.0891L24.0248 10H22.5382L21.1643 5.28306H21.108L19.7376 10H18.251ZM30.3472 7.69613V4.58908H31.8479V10H30.4071V9.01716H30.3507C30.2286 9.3342 30.0255 9.58901 29.7413 9.78159C29.4595 9.97417 29.1154 10.0705 28.7091 10.0705C28.3475 10.0705 28.0293 9.98826 27.7545 9.82386C27.4797 9.65947 27.2648 9.42579 27.1098 9.12284C26.9572 8.81988 26.8797 8.45704 26.8773 8.03432V4.58908H28.378V7.76659C28.3803 8.08598 28.4661 8.33844 28.6352 8.52398C28.8043 8.70951 29.0309 8.80227 29.315 8.80227C29.4959 8.80227 29.665 8.76117 29.8223 8.67898C29.9797 8.59443 30.1065 8.46996 30.2028 8.30557C30.3014 8.14117 30.3496 7.93803 30.3472 7.69613ZM34.5489 6.87181V10H33.0483V4.58908H34.4785V5.54374H34.5419C34.6617 5.22905 34.8625 4.98011 35.1443 4.79692C35.4261 4.61139 35.7678 4.51863 36.1694 4.51863C36.5452 4.51863 36.8728 4.60083 37.1522 4.76522C37.4317 4.92961 37.649 5.16446 37.804 5.46977C37.959 5.77272 38.0365 6.13439 38.0365 6.55477V10H36.5358V6.8225C36.5381 6.49136 36.4536 6.23302 36.2821 6.04749C36.1107 5.85962 35.8747 5.76568 35.5741 5.76568C35.3721 5.76568 35.1936 5.80912 35.0386 5.89602C34.886 5.98291 34.7662 6.10973 34.6793 6.27647C34.5947 6.44087 34.5513 6.63931 34.5489 6.87181ZM41.2131 10.0881C40.8021 10.0881 40.4299 9.98239 40.0964 9.77102C39.7652 9.55731 39.5022 9.24379 39.3073 8.83045C39.1147 8.41477 39.0184 7.90515 39.0184 7.30159C39.0184 6.68159 39.1182 6.16609 39.3178 5.75511C39.5175 5.34177 39.7828 5.03295 40.114 4.82863C40.4475 4.62196 40.8127 4.51863 41.2096 4.51863C41.5125 4.51863 41.765 4.5703 41.9669 4.67363C42.1713 4.77461 42.3357 4.90143 42.4601 5.05408C42.5869 5.20439 42.6832 5.35234 42.749 5.49795H42.7948V2.78544H44.2919V10H42.8124V9.13341H42.749C42.6785 9.28371 42.5787 9.43284 42.4496 9.58079C42.3227 9.7264 42.1572 9.84735 41.9529 9.94364C41.7509 10.0399 41.5043 10.0881 41.2131 10.0881ZM41.6886 8.89386C41.9305 8.89386 42.1349 8.8281 42.3016 8.69659C42.4707 8.56273 42.5999 8.37602 42.6891 8.13647C42.7807 7.89693 42.8265 7.61628 42.8265 7.29454C42.8265 6.9728 42.7819 6.69333 42.6926 6.45613C42.6034 6.21893 42.4742 6.03575 42.3051 5.90658C42.136 5.77742 41.9305 5.71283 41.6886 5.71283C41.4421 5.71283 41.2342 5.77977 41.0651 5.91363C40.896 6.04749 40.768 6.23302 40.6811 6.47022C40.5943 6.70742 40.5508 6.98219 40.5508 7.29454C40.5508 7.60924 40.5943 7.88753 40.6811 8.12943C40.7704 8.36897 40.8984 8.55685 41.0651 8.69307C41.2342 8.82693 41.4421 8.89386 41.6886 8.89386ZM47.9917 10.1057C47.4351 10.1057 46.956 9.99295 46.5544 9.7675C46.1552 9.5397 45.8475 9.21795 45.6315 8.80227C45.4154 8.38424 45.3074 7.88988 45.3074 7.3192C45.3074 6.76261 45.4154 6.27412 45.6315 5.85374C45.8475 5.43336 46.1517 5.10575 46.5439 4.8709C46.9384 4.63605 47.4011 4.51863 47.9318 4.51863C48.2888 4.51863 48.6211 4.57617 48.9287 4.69124C49.2387 4.80397 49.5088 4.97424 49.739 5.20204C49.9715 5.42984 50.1523 5.71636 50.2815 6.06159C50.4106 6.40446 50.4752 6.80606 50.4752 7.26636V7.67852H45.9062V6.74852H49.0626C49.0626 6.53246 49.0156 6.34106 48.9217 6.17431C48.8278 6.00757 48.6974 5.87723 48.5307 5.78329C48.3663 5.687 48.1749 5.63886 47.9565 5.63886C47.7287 5.63886 47.5267 5.6917 47.3506 5.79738C47.1768 5.90071 47.0406 6.04045 46.9419 6.21659C46.8433 6.39037 46.7928 6.58412 46.7904 6.79784V7.68204C46.7904 7.94977 46.8398 8.1811 46.9384 8.37602C47.0394 8.57094 47.1815 8.72125 47.3646 8.82693C47.5478 8.93261 47.7651 8.98545 48.0164 8.98545C48.1831 8.98545 48.3357 8.96197 48.4743 8.915C48.6129 8.86803 48.7315 8.79757 48.8301 8.70363C48.9287 8.60969 49.0039 8.49462 49.0556 8.35841L50.4435 8.45C50.3731 8.78348 50.2286 9.0747 50.0102 9.32364C49.7942 9.57023 49.5147 9.7628 49.1718 9.90136C48.8313 10.0376 48.4379 10.1057 47.9917 10.1057ZM51.4545 10V4.58908H52.9094V5.53318H52.9658C53.0644 5.19734 53.23 4.9437 53.4625 4.77227C53.695 4.59848 53.9627 4.51158 54.2657 4.51158C54.3408 4.51158 54.4219 4.51628 54.5087 4.52567C54.5956 4.53507 54.672 4.54798 54.7377 4.56442V5.89602C54.6673 5.87488 54.5698 5.85609 54.4453 5.83965C54.3209 5.82321 54.207 5.81499 54.1036 5.81499C53.8829 5.81499 53.6856 5.86314 53.5118 5.95943C53.3404 6.05337 53.2042 6.18488 53.1032 6.35397C53.0045 6.52306 52.9552 6.71799 52.9552 6.93875V10H51.4545ZM60.3257 5.11749C60.2763 4.94605 60.2071 4.79458 60.1178 4.66306C60.0286 4.5292 59.9194 4.41647 59.7902 4.32488C59.6634 4.23094 59.5178 4.15931 59.3534 4.10999C59.1913 4.06067 59.0117 4.03601 58.8144 4.03601C58.4457 4.03601 58.1216 4.12761 57.8421 4.31079C57.565 4.49397 57.349 4.76052 57.194 5.11045C57.039 5.45802 56.9615 5.8831 56.9615 6.38568C56.9615 6.88825 57.0378 7.31568 57.1904 7.66795C57.3431 8.02022 57.5591 8.28913 57.8386 8.47466C58.1181 8.65784 58.448 8.74943 58.8285 8.74943C59.1737 8.74943 59.4685 8.68837 59.7127 8.56625C59.9593 8.44178 60.1472 8.26682 60.2763 8.04136C60.4079 7.81591 60.4736 7.54935 60.4736 7.2417L60.7836 7.2875H58.9236V6.13909H61.9426V7.04795C61.9426 7.68204 61.8087 8.22689 61.541 8.6825C61.2733 9.13576 60.9046 9.48568 60.4349 9.73227C59.9652 9.97652 59.4274 10.0986 58.8215 10.0986C58.1451 10.0986 57.5509 9.94951 57.039 9.65125C56.527 9.35064 56.1277 8.92439 55.8412 8.3725C55.5571 7.81825 55.415 7.16068 55.415 6.39977C55.415 5.81499 55.4995 5.29363 55.6686 4.83567C55.84 4.37537 56.0796 3.98552 56.3872 3.66613C56.6949 3.34673 57.053 3.10366 57.4617 2.93692C57.8703 2.77018 58.313 2.68681 58.7898 2.68681C59.1984 2.68681 59.5788 2.74669 59.9311 2.86647C60.2834 2.98389 60.5957 3.15063 60.8682 3.36669C61.1429 3.58276 61.3672 3.83991 61.541 4.13817C61.7148 4.43408 61.8263 4.76052 61.8757 5.11749H60.3257ZM63.0602 10V4.58908H64.5151V5.53318H64.5714C64.6701 5.19734 64.8356 4.9437 65.0681 4.77227C65.3006 4.59848 65.5684 4.51158 65.8713 4.51158C65.9465 4.51158 66.0275 4.51628 66.1144 4.52567C66.2013 4.53507 66.2776 4.54798 66.3434 4.56442V5.89602C66.2729 5.87488 66.1755 5.85609 66.051 5.83965C65.9265 5.82321 65.8126 5.81499 65.7093 5.81499C65.4885 5.81499 65.2912 5.86314 65.1175 5.95943C64.946 6.05337 64.8098 6.18488 64.7088 6.35397C64.6102 6.52306 64.5609 6.71799 64.5609 6.93875V10H63.0602ZM68.5072 10.1022C68.162 10.1022 67.8543 10.0423 67.5843 9.9225C67.3142 9.80038 67.1005 9.62072 66.9431 9.38352C66.7881 9.14398 66.7106 8.84572 66.7106 8.48875C66.7106 8.18814 66.7658 7.93568 66.8762 7.73136C66.9866 7.52704 67.1369 7.36265 67.3271 7.23818C67.5173 7.11371 67.7334 7.01977 67.9753 6.95636C68.2195 6.89295 68.4755 6.84833 68.7432 6.8225C69.0579 6.78962 69.3116 6.75909 69.5041 6.7309C69.6967 6.70037 69.8365 6.65575 69.9233 6.59704C70.0102 6.53833 70.0537 6.45143 70.0537 6.33636V6.31522C70.0537 6.09212 69.9832 5.9195 69.8423 5.79738C69.7038 5.67526 69.5065 5.6142 69.2505 5.6142C68.9804 5.6142 68.7655 5.67408 68.6058 5.79386C68.4461 5.91128 68.3405 6.05924 68.2888 6.23772L66.9008 6.12499C66.9713 5.79621 67.1099 5.51204 67.3165 5.27249C67.5232 5.0306 67.7897 4.84507 68.1162 4.7159C68.445 4.58439 68.8254 4.51863 69.2576 4.51863C69.5582 4.51863 69.8458 4.55386 70.1206 4.62431C70.3977 4.69476 70.6432 4.80397 70.8569 4.95192C71.0729 5.09988 71.2432 5.29011 71.3677 5.52261C71.4921 5.75276 71.5544 6.02871 71.5544 6.35045V10H70.1312V9.24966H70.0889C70.002 9.41875 69.8858 9.56788 69.7402 9.69705C69.5946 9.82386 69.4196 9.92367 69.2153 9.99648C69.011 10.0669 68.7749 10.1022 68.5072 10.1022ZM68.937 9.06648C69.1577 9.06648 69.3527 9.02303 69.5218 8.93613C69.6908 8.84689 69.8235 8.72712 69.9198 8.57682C70.0161 8.42651 70.0643 8.25625 70.0643 8.06602V7.49181C70.0173 7.52234 69.9527 7.55053 69.8705 7.57636C69.7907 7.59984 69.7002 7.62216 69.5993 7.64329C69.4983 7.66208 69.3973 7.67969 69.2963 7.69613C69.1953 7.71022 69.1037 7.72314 69.0215 7.73488C68.8454 7.76072 68.6916 7.80181 68.56 7.85818C68.4285 7.91454 68.3264 7.99087 68.2536 8.08716C68.1808 8.1811 68.1444 8.29852 68.1444 8.43943C68.1444 8.64375 68.2183 8.79992 68.3663 8.90795C68.5166 9.01363 68.7068 9.06648 68.937 9.06648ZM72.7186 12.0291V4.58908H74.1982V5.49795H74.2651C74.3309 5.35234 74.426 5.20439 74.5505 5.05408C74.6773 4.90143 74.8417 4.77461 75.0436 4.67363C75.248 4.5703 75.5016 4.51863 75.8045 4.51863C76.1991 4.51863 76.5631 4.62196 76.8966 4.82863C77.2301 5.03295 77.4966 5.34177 77.6963 5.75511C77.8959 6.16609 77.9957 6.68159 77.9957 7.30159C77.9957 7.90515 77.8982 8.41477 77.7033 8.83045C77.5107 9.24379 77.2477 9.55731 76.9142 9.77102C76.5831 9.98239 76.212 10.0881 75.801 10.0881C75.5098 10.0881 75.262 10.0399 75.0577 9.94364C74.8558 9.84735 74.6902 9.7264 74.561 9.58079C74.4319 9.43284 74.3332 9.28371 74.2651 9.13341H74.2193V12.0291H72.7186ZM74.1876 7.29454C74.1876 7.61628 74.2322 7.89693 74.3215 8.13647C74.4107 8.37602 74.5399 8.56273 74.709 8.69659C74.8781 8.8281 75.0836 8.89386 75.3255 8.89386C75.5697 8.89386 75.7764 8.82693 75.9455 8.69307C76.1145 8.55685 76.2425 8.36897 76.3294 8.12943C76.4187 7.88753 76.4633 7.60924 76.4633 7.29454C76.4633 6.98219 76.4199 6.70742 76.333 6.47022C76.2461 6.23302 76.1181 6.04749 75.949 5.91363C75.7799 5.77977 75.572 5.71283 75.3255 5.71283C75.0812 5.71283 74.8745 5.77742 74.7055 5.90658C74.5387 6.03575 74.4107 6.21893 74.3215 6.45613C74.2322 6.69333 74.1876 6.9728 74.1876 7.29454ZM80.4968 6.87181V10H78.9961V2.78544H80.4546V5.54374H80.518C80.6401 5.22435 80.8374 4.97423 81.1098 4.7934C81.3822 4.61022 81.7239 4.51863 82.1349 4.51863C82.5107 4.51863 82.8383 4.60083 83.1177 4.76522C83.3996 4.92727 83.618 5.16094 83.773 5.46624C83.9303 5.7692 84.0078 6.13204 84.0055 6.55477V10H82.5048V6.8225C82.5071 6.48901 82.4226 6.2295 82.2511 6.04397C82.0821 5.85844 81.8449 5.76568 81.5396 5.76568C81.3352 5.76568 81.1544 5.80912 80.9971 5.89602C80.8421 5.98291 80.7199 6.10973 80.6307 6.27647C80.5438 6.44087 80.4992 6.63931 80.4968 6.87181ZM93.8762 5.31124H92.3332C92.305 5.11162 92.2475 4.93431 92.1606 4.77931C92.0737 4.62196 91.9622 4.4881 91.8259 4.37772C91.6897 4.26734 91.5324 4.18279 91.3539 4.12408C91.1778 4.06537 90.9864 4.03601 90.7797 4.03601C90.4063 4.03601 90.081 4.12878 89.8039 4.31431C89.5268 4.49749 89.3119 4.76522 89.1592 5.11749C89.0066 5.46742 88.9303 5.89249 88.9303 6.39272C88.9303 6.90704 89.0066 7.33916 89.1592 7.68909C89.3142 8.03901 89.5303 8.30322 89.8074 8.4817C90.0845 8.66019 90.4051 8.74943 90.7691 8.74943C90.9734 8.74943 91.1625 8.72242 91.3363 8.66841C91.5124 8.61439 91.6686 8.53572 91.8048 8.43238C91.941 8.3267 92.0537 8.19871 92.143 8.04841C92.2346 7.8981 92.298 7.72666 92.3332 7.53409L93.8762 7.54113C93.8362 7.87227 93.7364 8.19166 93.5767 8.49932C93.4194 8.80462 93.2068 9.07822 92.9391 9.32011C92.6737 9.55966 92.3567 9.74989 91.988 9.8908C91.6216 10.0294 91.2071 10.0986 90.7445 10.0986C90.101 10.0986 89.5256 9.95303 89.0183 9.66182C88.5134 9.37061 88.1142 8.94905 87.8206 8.39716C87.5294 7.84526 87.3838 7.17712 87.3838 6.39272C87.3838 5.60598 87.5317 4.93666 87.8276 4.38476C88.1235 3.83287 88.5251 3.41249 89.0324 3.12363C89.5397 2.83241 90.1104 2.68681 90.7445 2.68681C91.1625 2.68681 91.55 2.74552 91.907 2.86294C92.2663 2.98037 92.5845 3.15181 92.8616 3.37726C93.1387 3.60037 93.3642 3.87397 93.538 4.19806C93.7141 4.52215 93.8269 4.89321 93.8762 5.31124ZM97.3866 10.1057C96.8394 10.1057 96.3661 9.98943 95.9669 9.75693C95.57 9.52208 95.2635 9.19564 95.0475 8.77761C94.8314 8.35723 94.7234 7.86992 94.7234 7.31568C94.7234 6.75674 94.8314 6.26825 95.0475 5.85022C95.2635 5.42984 95.57 5.1034 95.9669 4.8709C96.3661 4.63605 96.8394 4.51863 97.3866 4.51863C97.9338 4.51863 98.4058 4.63605 98.8027 4.8709C99.2019 5.1034 99.5096 5.42984 99.7257 5.85022C99.9417 6.26825 100.05 6.75674 100.05 7.31568C100.05 7.86992 99.9417 8.35723 99.7257 8.77761C99.5096 9.19564 99.2019 9.52208 98.8027 9.75693C98.4058 9.98943 97.9338 10.1057 97.3866 10.1057ZM97.3936 8.94318C97.6426 8.94318 97.8504 8.87273 98.0171 8.73182C98.1839 8.58856 98.3095 8.39363 98.3941 8.14704C98.481 7.90045 98.5244 7.61981 98.5244 7.30511C98.5244 6.99041 98.481 6.70977 98.3941 6.46318C98.3095 6.21659 98.1839 6.02166 98.0171 5.8784C97.8504 5.73515 97.6426 5.66352 97.3936 5.66352C97.1423 5.66352 96.931 5.73515 96.7595 5.8784C96.5904 6.02166 96.4624 6.21659 96.3755 6.46318C96.291 6.70977 96.2487 6.99041 96.2487 7.30511C96.2487 7.61981 96.291 7.90045 96.3755 8.14704C96.4624 8.39363 96.5904 8.58856 96.7595 8.73182C96.931 8.87273 97.1423 8.94318 97.3936 8.94318ZM105.528 6.13204L104.154 6.21659C104.13 6.09916 104.08 5.99348 104.002 5.89954C103.925 5.80325 103.823 5.72693 103.696 5.67056C103.571 5.61185 103.422 5.58249 103.248 5.58249C103.016 5.58249 102.82 5.63181 102.66 5.73045C102.5 5.82674 102.421 5.9559 102.421 6.11795C102.421 6.24712 102.472 6.35632 102.576 6.44556C102.679 6.53481 102.856 6.60643 103.107 6.66045L104.087 6.85772C104.613 6.96575 105.005 7.13954 105.263 7.37909C105.522 7.61863 105.651 7.93333 105.651 8.32318C105.651 8.6778 105.546 8.98898 105.337 9.2567C105.131 9.52443 104.847 9.73345 104.485 9.88375C104.126 10.0317 103.711 10.1057 103.241 10.1057C102.525 10.1057 101.954 9.95655 101.529 9.65829C101.107 9.35769 100.859 8.94905 100.786 8.43238L102.262 8.35488C102.307 8.57329 102.415 8.74004 102.586 8.85511C102.758 8.96784 102.977 9.0242 103.245 9.0242C103.508 9.0242 103.719 8.97371 103.879 8.87273C104.041 8.76939 104.123 8.6367 104.126 8.47466C104.123 8.33844 104.066 8.22689 103.953 8.14C103.84 8.05075 103.666 7.98265 103.432 7.93568L102.495 7.74897C101.966 7.64329 101.573 7.46011 101.314 7.19943C101.058 6.93875 100.93 6.60643 100.93 6.20249C100.93 5.85492 101.024 5.55549 101.212 5.3042C101.402 5.05291 101.669 4.85916 102.012 4.72295C102.357 4.58673 102.761 4.51863 103.224 4.51863C103.907 4.51863 104.445 4.66306 104.837 4.95192C105.232 5.24079 105.462 5.63416 105.528 6.13204ZM106.596 10V4.58908H108.026V5.54374H108.09C108.202 5.2267 108.39 4.97658 108.653 4.7934C108.916 4.61022 109.231 4.51863 109.597 4.51863C109.968 4.51863 110.284 4.61139 110.545 4.79692C110.806 4.98011 110.979 5.22905 111.066 5.54374H111.123C111.233 5.23374 111.433 4.98598 111.721 4.80045C112.013 4.61257 112.357 4.51863 112.754 4.51863C113.259 4.51863 113.668 4.6795 113.983 5.00124C114.3 5.32064 114.459 5.7739 114.459 6.36102V10H112.961V6.65693C112.961 6.35632 112.882 6.13087 112.722 5.98056C112.562 5.83026 112.363 5.75511 112.123 5.75511C111.851 5.75511 111.638 5.842 111.485 6.01579C111.333 6.18723 111.256 6.41386 111.256 6.69568V10H109.802V6.62522C109.802 6.35984 109.725 6.14848 109.573 5.99113C109.422 5.83378 109.224 5.75511 108.977 5.75511C108.81 5.75511 108.66 5.79738 108.526 5.88193C108.395 5.96412 108.29 6.08037 108.213 6.23068C108.135 6.37863 108.097 6.55242 108.097 6.75204V10H106.596ZM118.089 10.1057C117.542 10.1057 117.068 9.98943 116.669 9.75693C116.272 9.52208 115.966 9.19564 115.75 8.77761C115.534 8.35723 115.426 7.86992 115.426 7.31568C115.426 6.75674 115.534 6.26825 115.75 5.85022C115.966 5.42984 116.272 5.1034 116.669 4.8709C117.068 4.63605 117.542 4.51863 118.089 4.51863C118.636 4.51863 119.108 4.63605 119.505 4.8709C119.904 5.1034 120.212 5.42984 120.428 5.85022C120.644 6.26825 120.752 6.75674 120.752 7.31568C120.752 7.86992 120.644 8.35723 120.428 8.77761C120.212 9.19564 119.904 9.52208 119.505 9.75693C119.108 9.98943 118.636 10.1057 118.089 10.1057ZM118.096 8.94318C118.345 8.94318 118.553 8.87273 118.719 8.73182C118.886 8.58856 119.012 8.39363 119.096 8.14704C119.183 7.90045 119.227 7.61981 119.227 7.30511C119.227 6.99041 119.183 6.70977 119.096 6.46318C119.012 6.21659 118.886 6.02166 118.719 5.8784C118.553 5.73515 118.345 5.66352 118.096 5.66352C117.845 5.66352 117.633 5.73515 117.462 5.8784C117.293 6.02166 117.165 6.21659 117.078 6.46318C116.993 6.70977 116.951 6.99041 116.951 7.30511C116.951 7.61981 116.993 7.90045 117.078 8.14704C117.165 8.39363 117.293 8.58856 117.462 8.73182C117.633 8.87273 117.845 8.94318 118.096 8.94318Z" fill="white"/>
</svg>
