<svg width="84" height="14" viewBox="0 0 84 14" fill="none"
    xmlns="http://www.w3.org/2000/svg">
    <g clip-path="url(#clip0_1419_91)">
        <path fill-rule="evenodd" clip-rule="evenodd" d="M0.536002 4.92949C0.687544 4.98108 0.849182 5.0104 1.0179 5.0104C1.16944 5.0104 1.31561 4.98716 1.45365 4.94519V8.93483C1.45365 9.07583 1.5289 9.20722 1.65029 9.27768L5.46614 11.4964C5.64662 11.2842 5.91392 11.1492 6.2124 11.1492C6.53728 11.1492 6.82476 11.3091 7.00393 11.5543C7.00709 11.5588 7.0105 11.563 7.01366 11.5674C7.02625 11.5853 7.03802 11.6037 7.04945 11.6226L7.06253 11.6441C7.07264 11.6615 7.08198 11.6792 7.09085 11.6972C7.09572 11.7068 7.10031 11.7166 7.10491 11.7264C7.11252 11.743 7.11969 11.7599 7.12652 11.777C7.13138 11.7893 7.13571 11.8016 7.14004 11.814C7.14551 11.8297 7.15091 11.8455 7.1555 11.8615C7.15995 11.8767 7.1635 11.892 7.16732 11.9073L7.17712 11.9505C7.18091 11.9696 7.18342 11.989 7.18604 12.0086C7.18748 12.0202 7.18971 12.0316 7.19076 12.0432C7.1938 12.0749 7.19562 12.1068 7.19562 12.1393C7.19562 12.191 7.19052 12.2413 7.18276 12.291L7.18001 12.3094C7.09965 12.7746 6.6968 13.1294 6.2124 13.1294C5.78044 13.1294 5.41352 12.847 5.28179 12.4563L1.19147 10.0781C0.78573 9.84234 0.536002 9.4064 0.536002 8.93483V4.92949ZM11.2431 2.50208C11.7853 2.50208 12.2263 2.94617 12.2263 3.4922C12.2263 3.78925 12.0952 4.05538 11.8888 4.23703V8.93483C11.8888 9.4064 11.6391 9.84234 11.2334 10.0781L7.71905 12.1213C7.71511 11.7871 7.6029 11.4794 7.41678 11.2299L10.7746 9.27768C10.8959 9.20722 10.9712 9.07583 10.9712 8.93483V4.44299C10.561 4.3239 10.2599 3.94318 10.2599 3.4922C10.2599 3.27265 10.3321 3.07026 10.4527 2.9059C10.4546 2.90328 10.4565 2.90077 10.4584 2.89812C10.4812 2.86776 10.5055 2.83846 10.5315 2.81086L10.535 2.80702C10.5889 2.75054 10.6492 2.70074 10.7151 2.65839C10.7218 2.65389 10.7291 2.64981 10.736 2.64543C10.7621 2.62972 10.7887 2.61494 10.8162 2.60162C10.8243 2.59778 10.8322 2.59357 10.8403 2.58987C10.8748 2.57429 10.91 2.55989 10.9464 2.54842L11.0179 2.52848C11.0902 2.51129 11.1656 2.50208 11.2431 2.50208ZM6.21237 0C6.43876 0 6.66502 0.0588793 6.86782 0.176771L10.403 2.23227C10.1428 2.4089 9.94142 2.66568 9.83065 2.96642L6.409 0.977188C6.34938 0.942332 6.28133 0.924119 6.21237 0.924119C6.14344 0.924119 6.07551 0.942332 6.01572 0.977188L1.98532 3.32062C1.99502 3.37645 2.00105 3.43349 2.00105 3.49223C2.00105 3.91825 1.73205 4.28116 1.35647 4.42058C1.35358 4.42165 1.35057 4.42281 1.34768 4.42374C1.31793 4.43446 1.28778 4.4437 1.25684 4.45148L1.23835 4.45622C1.21004 4.46281 1.18107 4.46799 1.15196 4.47205L1.12824 4.47565C1.09193 4.47971 1.05522 4.48238 1.01786 4.48238C0.977877 4.48238 0.93855 4.4792 0.899611 4.47446C0.889125 4.47309 0.878903 4.47127 0.868543 4.46969C0.838657 4.46505 0.809291 4.45914 0.780318 4.45187C0.771402 4.44961 0.762492 4.44749 0.753578 4.44501C0.676888 4.4232 0.603998 4.39298 0.535963 4.3543L0.477527 4.31829C0.2111 4.14107 0.034668 3.83724 0.034668 3.49223C0.034668 2.94622 0.475794 2.5021 1.01786 2.5021C1.15852 2.5021 1.29197 2.53247 1.41297 2.5862L5.5569 0.176771C5.7597 0.0588793 5.98611 0 6.21237 0Z" fill="#FFB21D"/>
    </g>
    <path fill-rule="evenodd" clip-rule="evenodd" d="M9.41771 5.44454L8.88448 6.36778L9.41771 7.29102C9.46578 7.37422 9.46578 7.47673 9.41771 7.55993L8.80685 8.61762C8.75881 8.70083 8.67001 8.75208 8.5739 8.75208H7.50748L6.97425 9.67532C6.92621 9.75852 6.83741 9.80977 6.7413 9.80977H5.51959C5.42347 9.80977 5.33468 9.75852 5.28664 9.67532L4.75341 8.75208H3.68699C3.59088 8.75208 3.50208 8.70083 3.45404 8.61762L2.84318 7.55993C2.79511 7.47673 2.79511 7.37422 2.84318 7.29102L3.37638 6.36778L2.84318 5.44454C2.79511 5.36134 2.79511 5.25883 2.84318 5.17563L3.45404 4.11793C3.50208 4.03473 3.59088 3.98348 3.68699 3.98348H4.75341L5.28664 3.06024C5.33468 2.97703 5.42347 2.92578 5.51959 2.92578H6.7413C6.83741 2.92578 6.92621 2.97703 6.97425 3.06024L7.50748 3.98348H8.5739C8.67001 3.98348 8.75881 4.03473 8.80685 4.11793L9.41771 5.17563C9.46578 5.25883 9.46578 5.36134 9.41771 5.44454ZM3.8423 8.21426H4.75341L5.20898 7.42547L4.75341 6.63669H3.8423L3.38674 7.42547L3.8423 8.21426ZM3.8423 6.09887H4.75341L5.20898 5.31008L4.75341 4.52127H3.8423L3.38674 5.31008L3.8423 6.09887ZM5.6749 9.27196H6.58601L7.04158 8.48317L6.58601 7.69438H5.6749L5.21931 8.48317L5.6749 9.27196ZM5.67488 5.57899L5.21931 6.36778L5.67488 7.15656H6.58601L7.04158 6.36778L6.58601 5.57899H5.67488ZM5.6749 5.04117H6.58601L7.04158 4.25236L6.58599 3.4636H5.67488L5.21931 4.25236L5.6749 5.04117ZM7.50748 8.21426H8.41858L8.87415 7.42547L8.41858 6.63669H7.50748L7.05191 7.42547L7.50748 8.21426ZM7.50748 6.09887H8.41858L8.87415 5.31008L8.41858 4.5213H7.50748L7.05191 5.31008L7.50748 6.09887Z" fill="#FFB21D"/>
    <path d="M21.4109 5.11749C21.3616 4.94605 21.2923 4.79458 21.2031 4.66306C21.1138 4.5292 21.0046 4.41647 20.8755 4.32488C20.7486 4.23094 20.603 4.15931 20.4386 4.10999C20.2766 4.06067 20.0969 4.03601 19.8997 4.03601C19.531 4.03601 19.2069 4.12761 18.9274 4.31079C18.6503 4.49397 18.4342 4.76052 18.2792 5.11045C18.1242 5.45802 18.0467 5.8831 18.0467 6.38568C18.0467 6.88825 18.123 7.31568 18.2757 7.66795C18.4283 8.02022 18.6444 8.28913 18.9239 8.47466C19.2033 8.65784 19.5333 8.74943 19.9138 8.74943C20.259 8.74943 20.5537 8.68837 20.798 8.56625C21.0446 8.44178 21.2324 8.26682 21.3616 8.04136C21.4931 7.81591 21.5589 7.54935 21.5589 7.2417L21.8689 7.2875H20.0089V6.13909H23.0279V7.04795C23.0279 7.68204 22.894 8.22689 22.6263 8.6825C22.3585 9.13576 21.9898 9.48568 21.5201 9.73227C21.0504 9.97652 20.5126 10.0986 19.9067 10.0986C19.2303 10.0986 18.6362 9.94951 18.1242 9.65125C17.6122 9.35064 17.213 8.92439 16.9265 8.3725C16.6423 7.81825 16.5002 7.16068 16.5002 6.39977C16.5002 5.81499 16.5848 5.29363 16.7539 4.83567C16.9253 4.37537 17.1649 3.98552 17.4725 3.66613C17.7802 3.34673 18.1383 3.10366 18.5469 2.93692C18.9556 2.77018 19.3983 2.68681 19.875 2.68681C20.2836 2.68681 20.6641 2.74669 21.0164 2.86647C21.3686 2.98389 21.681 3.15063 21.9534 3.36669C22.2282 3.58276 22.4525 3.83991 22.6263 4.13817C22.8 4.43408 22.9116 4.76052 22.9609 5.11749H21.4109ZM24.1454 10V4.58908H25.6003V5.53318H25.6567C25.7553 5.19734 25.9209 4.9437 26.1534 4.77227C26.3859 4.59848 26.6536 4.51158 26.9566 4.51158C27.0317 4.51158 27.1128 4.51628 27.1996 4.52567C27.2865 4.53507 27.3629 4.54798 27.4286 4.56442V5.89602C27.3582 5.87488 27.2607 5.85609 27.1362 5.83965C27.0118 5.82321 26.8979 5.81499 26.7945 5.81499C26.5738 5.81499 26.3765 5.86314 26.2027 5.95943C26.0313 6.05337 25.8951 6.18488 25.7941 6.35397C25.6954 6.52306 25.6461 6.71799 25.6461 6.93875V10H24.1454ZM29.5925 10.1022C29.2472 10.1022 28.9396 10.0423 28.6695 9.9225C28.3994 9.80038 28.1857 9.62072 28.0284 9.38352C27.8734 9.14398 27.7959 8.84572 27.7959 8.48875C27.7959 8.18814 27.8511 7.93568 27.9614 7.73136C28.0718 7.52704 28.2221 7.36265 28.4123 7.23818C28.6026 7.11371 28.8186 7.01977 29.0605 6.95636C29.3048 6.89295 29.5608 6.84833 29.8285 6.8225C30.1432 6.78962 30.3968 6.75909 30.5894 6.7309C30.782 6.70037 30.9217 6.65575 31.0086 6.59704C31.0955 6.53833 31.1389 6.45143 31.1389 6.33636V6.31522C31.1389 6.09212 31.0685 5.9195 30.9276 5.79738C30.789 5.67526 30.5917 5.6142 30.3358 5.6142C30.0657 5.6142 29.8508 5.67408 29.6911 5.79386C29.5314 5.91128 29.4257 6.05924 29.3741 6.23772L27.9861 6.12499C28.0566 5.79621 28.1951 5.51204 28.4018 5.27249C28.6084 5.0306 28.875 4.84507 29.2014 4.7159C29.5302 4.58439 29.9107 4.51863 30.3428 4.51863C30.6434 4.51863 30.9311 4.55386 31.2059 4.62431C31.483 4.69476 31.7284 4.80397 31.9421 4.95192C32.1582 5.09988 32.3285 5.29011 32.4529 5.52261C32.5774 5.75276 32.6396 6.02871 32.6396 6.35045V10H31.2164V9.24966H31.1742C31.0873 9.41875 30.971 9.56788 30.8254 9.69705C30.6798 9.82386 30.5049 9.92367 30.3005 9.99648C30.0962 10.0669 29.8602 10.1022 29.5925 10.1022ZM30.0222 9.06648C30.243 9.06648 30.4379 9.02303 30.607 8.93613C30.7761 8.84689 30.9088 8.72712 31.0051 8.57682C31.1014 8.42651 31.1495 8.25625 31.1495 8.06602V7.49181C31.1025 7.52234 31.038 7.55053 30.9558 7.57636C30.8759 7.59984 30.7855 7.62216 30.6845 7.64329C30.5835 7.66208 30.4825 7.67969 30.3816 7.69613C30.2806 7.71022 30.189 7.72314 30.1068 7.73488C29.9306 7.76072 29.7768 7.80181 29.6453 7.85818C29.5138 7.91454 29.4116 7.99087 29.3388 8.08716C29.266 8.1811 29.2296 8.29852 29.2296 8.43943C29.2296 8.64375 29.3036 8.79992 29.4516 8.90795C29.6019 9.01363 29.7921 9.06648 30.0222 9.06648ZM33.8039 12.0291V4.58908H35.2834V5.49795H35.3504C35.4161 5.35234 35.5112 5.20439 35.6357 5.05408C35.7625 4.90143 35.9269 4.77461 36.1289 4.67363C36.3332 4.5703 36.5868 4.51863 36.8898 4.51863C37.2843 4.51863 37.6484 4.62196 37.9818 4.82863C38.3153 5.03295 38.5819 5.34177 38.7815 5.75511C38.9811 6.16609 39.0809 6.68159 39.0809 7.30159C39.0809 7.90515 38.9835 8.41477 38.7886 8.83045C38.596 9.24379 38.3329 9.55731 37.9995 9.77102C37.6683 9.98239 37.2973 10.0881 36.8863 10.0881C36.5951 10.0881 36.3473 10.0399 36.143 9.94364C35.941 9.84735 35.7754 9.7264 35.6463 9.58079C35.5171 9.43284 35.4185 9.28371 35.3504 9.13341H35.3046V12.0291H33.8039ZM35.2729 7.29454C35.2729 7.61628 35.3175 7.89693 35.4067 8.13647C35.496 8.37602 35.6251 8.56273 35.7942 8.69659C35.9633 8.8281 36.1688 8.89386 36.4107 8.89386C36.655 8.89386 36.8616 8.82693 37.0307 8.69307C37.1998 8.55685 37.3278 8.36897 37.4147 8.12943C37.5039 7.88753 37.5486 7.60924 37.5486 7.29454C37.5486 6.98219 37.5051 6.70742 37.4182 6.47022C37.3313 6.23302 37.2033 6.04749 37.0342 5.91363C36.8651 5.77977 36.6573 5.71283 36.4107 5.71283C36.1665 5.71283 35.9598 5.77742 35.7907 5.90658C35.624 6.03575 35.496 6.21893 35.4067 6.45613C35.3175 6.69333 35.2729 6.9728 35.2729 7.29454ZM41.5821 6.87181V10H40.0814V2.78544H41.5398V5.54374H41.6032C41.7253 5.22435 41.9226 4.97423 42.195 4.7934C42.4675 4.61022 42.8092 4.51863 43.2202 4.51863C43.5959 4.51863 43.9235 4.60083 44.203 4.76522C44.4848 4.92727 44.7032 5.16094 44.8582 5.46624C45.0156 5.7692 45.0931 6.13204 45.0907 6.55477V10H43.59V6.8225C43.5924 6.48901 43.5078 6.2295 43.3364 6.04397C43.1673 5.85844 42.9301 5.76568 42.6248 5.76568C42.4205 5.76568 42.2397 5.80912 42.0823 5.89602C41.9273 5.98291 41.8052 6.10973 41.7159 6.27647C41.6291 6.44087 41.5844 6.63931 41.5821 6.87181ZM49.023 7.49181H50.3193L50.971 8.33022L51.6122 9.07704L52.8205 10.5918H51.3973L50.5659 9.57023L50.1397 8.96432L49.023 7.49181ZM52.9297 6.39272C52.9297 7.17947 52.7806 7.84878 52.4823 8.40068C52.1864 8.95257 51.7824 9.37413 51.2705 9.66534C50.7609 9.9542 50.1878 10.0986 49.5514 10.0986C48.9102 10.0986 48.3349 9.95303 47.8252 9.66182C47.3156 9.37061 46.9129 8.94905 46.6169 8.39716C46.321 7.84526 46.1731 7.17712 46.1731 6.39272C46.1731 5.60598 46.321 4.93666 46.6169 4.38476C46.9129 3.83287 47.3156 3.41249 47.8252 3.12363C48.3349 2.83241 48.9102 2.68681 49.5514 2.68681C50.1878 2.68681 50.7609 2.83241 51.2705 3.12363C51.7824 3.41249 52.1864 3.83287 52.4823 4.38476C52.7806 4.93666 52.9297 5.60598 52.9297 6.39272ZM51.3832 6.39272C51.3832 5.8831 51.3069 5.45333 51.1542 5.1034C51.0039 4.75348 50.7914 4.4881 50.5166 4.30726C50.2418 4.12643 49.9201 4.03601 49.5514 4.03601C49.1827 4.03601 48.8609 4.12643 48.5862 4.30726C48.3114 4.4881 48.0977 4.75348 47.945 5.1034C47.7947 5.45333 47.7196 5.8831 47.7196 6.39272C47.7196 6.90234 47.7947 7.33212 47.945 7.68204C48.0977 8.03197 48.3114 8.29735 48.5862 8.47818C48.8609 8.65901 49.1827 8.74943 49.5514 8.74943C49.9201 8.74943 50.2418 8.65901 50.5166 8.47818C50.7914 8.29735 51.0039 8.03197 51.1542 7.68204C51.3069 7.33212 51.3832 6.90234 51.3832 6.39272ZM54.0596 10V2.78544H55.5849V8.74238H58.6779V10H54.0596ZM61.984 10V2.78544H63.5093V5.76215H66.6058V2.78544H68.1276V10H66.6058V7.01977H63.5093V10H61.984ZM69.3571 10V4.58908H70.8578V10H69.3571ZM70.1109 3.89158C69.8878 3.89158 69.6964 3.8176 69.5367 3.66965C69.3794 3.51935 69.3007 3.33969 69.3007 3.13067C69.3007 2.924 69.3794 2.74669 69.5367 2.59874C69.6964 2.44844 69.8878 2.37328 70.1109 2.37328C70.334 2.37328 70.5243 2.44844 70.6816 2.59874C70.8413 2.74669 70.9212 2.924 70.9212 3.13067C70.9212 3.33969 70.8413 3.51935 70.6816 3.66965C70.5243 3.8176 70.334 3.89158 70.1109 3.89158ZM77.1044 4.58908L75.2127 10H73.5218L71.6301 4.58908H73.2153L74.3391 8.46057H74.3955L75.5157 4.58908H77.1044ZM80.1639 10.1057C79.6073 10.1057 79.1282 9.99295 78.7267 9.7675C78.3274 9.5397 78.0198 9.21795 77.8037 8.80227C77.5876 8.38424 77.4796 7.88988 77.4796 7.3192C77.4796 6.76261 77.5876 6.27412 77.8037 5.85374C78.0198 5.43336 78.3239 5.10575 78.7161 4.8709C79.1106 4.63605 79.5733 4.51863 80.104 4.51863C80.461 4.51863 80.7933 4.57617 81.101 4.69124C81.411 4.80397 81.6811 4.97424 81.9112 5.20204C82.1437 5.42984 82.3245 5.71636 82.4537 6.06159C82.5829 6.40446 82.6475 6.80606 82.6475 7.26636V7.67852H78.0785V6.74852H81.2348C81.2348 6.53246 81.1879 6.34106 81.0939 6.17431C81 6.00757 80.8696 5.87723 80.7029 5.78329C80.5385 5.687 80.3471 5.63886 80.1287 5.63886C79.9009 5.63886 79.6989 5.6917 79.5228 5.79738C79.349 5.90071 79.2128 6.04045 79.1142 6.21659C79.0155 6.39037 78.965 6.58412 78.9627 6.79784V7.68204C78.9627 7.94977 79.012 8.1811 79.1106 8.37602C79.2116 8.57094 79.3537 8.72125 79.5369 8.82693C79.7201 8.93261 79.9373 8.98545 80.1886 8.98545C80.3553 8.98545 80.508 8.96197 80.6465 8.915C80.7851 8.86803 80.9037 8.79757 81.0023 8.70363C81.101 8.60969 81.1761 8.49462 81.2278 8.35841L82.6158 8.45C82.5453 8.78348 82.4009 9.0747 82.1825 9.32364C81.9664 9.57023 81.6869 9.7628 81.344 9.90136C81.0035 10.0376 80.6101 10.1057 80.1639 10.1057Z" fill="#FFB21D"/>
    <defs>
        <clipPath id="clip0_1419_91">
            <rect width="12.4" height="13.1294" fill="white"/>
        </clipPath>
    </defs>
</svg>
