<svg width="735" height="325" viewBox="0 0 735 325" fill="none"
  xmlns="http://www.w3.org/2000/svg">
  <path d="M599.317 152.621H577.133V71.481H599.317C628.936 71.481 652.511 81.245 652.511 111.534C652.512 142.818 628.937 152.621 599.317 152.621ZM360.533 210.626C348.787 210.626 337.776 208.482 328.257 204.904L360.215 104.124H360.894L392.19 205.176C382.76 208.555 372.033 210.626 360.565 210.626M593.438 5.56502H492.687V245.128L404.677 5.56502H317.436L242.241 205.85C234.292 155.371 181.998 137.892 140.888 124.86C113.789 116.137 84.948 103.322 85.209 89.133C85.438 77.526 100.702 66.766 130.812 68.369C151.103 69.399 169.005 71.041 204.537 88.22L239.535 27.248C207.115 10.681 162.186 0.288017 125.429 0.205017H125.201C82.326 0.205017 46.594 14.183 24.433 37.068C9.03 53.072 0.697 73.318 0.318 95.858C-0.25 126.731 11.117 148.642 34.909 166.166C55.044 180.917 80.729 190.415 103.413 197.529C131.403 206.162 154.248 213.694 153.987 229.759C153.758 235.61 151.582 241.093 147.352 245.424C140.388 252.66 129.683 255.343 114.875 255.671C86.324 256.239 65.154 251.797 31.43 231.869L0.318 293.692C33.941 312.836 73.737 324.03 114.357 324.03H119.618C154.955 323.345 183.507 313.254 206.319 294.923L210.01 291.699L199.934 318.788H291.423L306.793 272.055C322.864 277.493 341.173 280.55 360.556 280.55C379.472 280.55 397.313 277.699 413.1 272.5L427.874 318.788H577.157V221.993H609.727C688.39 221.993 734.972 181.958 734.972 114.762C734.972 39.974 689.737 5.66602 593.421 5.66602" fill="white"></path>
</svg>
