<svg width="1096" height="166" viewBox="0 0 1096 166" fill="none"
  xmlns="http://www.w3.org/2000/svg">
  <path d="M64.2687 118.291C68.7741 118.292 73.1784 116.957 76.9247 114.454C80.671 111.951 83.5911 108.394 85.3155 104.232C87.0399 100.069 87.4912 95.4892 86.6124 91.0704C85.7336 86.6516 83.5642 82.5927 80.3784 79.4069C77.1926 76.2211 73.1337 74.0517 68.7149 73.1729C64.2961 72.2941 59.7159 72.7454 55.5536 74.4698C51.3914 76.1943 47.834 79.1143 45.3313 82.8606C42.8287 86.6069 41.4932 91.0112 41.4938 95.5166C41.4947 101.557 43.8944 107.349 48.1654 111.62C52.4363 115.891 58.2287 118.291 64.2687 118.291V118.291Z" fill="white"></path>
  <path d="M192.676 118.295C205.256 118.295 215.454 108.097 215.454 95.5168C215.454 82.9368 205.256 72.7388 192.676 72.7388C180.096 72.7388 169.898 82.9368 169.898 95.5168C169.898 108.097 180.096 118.295 192.676 118.295Z" fill="white"></path>
  <path d="M0.0664935 95.5165C0.0664935 130.979 28.8098 159.719 64.2687 159.719C80.4549 159.741 96.0477 153.625 107.903 142.605L128.484 165L149.064 142.618C160.919 153.629 176.506 159.739 192.686 159.716C228.148 159.716 256.916 130.969 256.916 95.5133C256.926 86.5803 255.066 77.7441 251.458 69.5724C247.849 61.4008 242.571 54.0743 235.962 48.0638L256.97 25.2066H210.398C186.262 8.7828 157.744 0 128.55 0C99.3564 0 70.8379 8.7828 46.7023 25.2066H0L21.0081 48.0638C14.4014 54.0757 9.12525 61.4031 5.51872 69.5754C1.91219 77.7476 0.0550108 86.5839 0.0664935 95.5165V95.5165ZM236.127 95.5165C236.127 104.11 233.578 112.511 228.804 119.656C224.03 126.802 217.244 132.371 209.304 135.66C201.365 138.948 192.628 139.809 184.199 138.132C175.771 136.456 168.029 132.317 161.952 126.241C155.875 120.164 151.737 112.422 150.061 103.993C148.384 95.5647 149.245 86.8282 152.533 78.8887C155.822 70.9491 161.391 64.1631 168.536 59.3887C175.682 54.6143 184.083 52.0659 192.676 52.0659C204.2 52.0659 215.252 56.6437 223.4 64.7923C231.549 72.9409 236.127 83.9927 236.127 95.5165V95.5165ZM128.474 21.005C145.034 20.9844 161.433 24.263 176.712 30.6494C149.289 41.1423 128.496 65.6745 128.496 94.2626C128.496 65.6713 107.697 41.136 80.271 30.6462C95.5394 24.2648 111.926 20.9873 128.474 21.005V21.005ZM64.2687 52.0659C72.8624 52.0659 81.2631 54.6143 88.4085 59.3887C95.5539 64.1631 101.123 70.9491 104.412 78.8887C107.7 86.8282 108.561 95.5647 106.884 103.993C105.208 112.422 101.07 120.164 94.9929 126.241C88.9162 132.317 81.1741 136.456 72.7455 138.132C64.3169 139.809 55.5804 138.948 47.6409 135.66C39.7013 132.371 32.9153 126.802 28.1409 119.656C23.3665 112.511 20.8181 104.11 20.8181 95.5165C20.8181 83.9927 25.396 72.9409 33.5445 64.7923C41.6931 56.6437 52.7449 52.0659 64.2687 52.0659V52.0659Z" fill="white"></path>
  <path d="M378.98 69.8703V55.5903H357.11V140.59H379.01V89.6103C379.01 80.3803 384.93 75.8503 394.16 75.8503H406.16V55.5903H395.87C387.86 55.5903 380.89 59.7703 378.98 69.8703Z" fill="white"></path>
  <path d="M426.62 22.0003C423.986 21.9826 421.405 22.7464 419.205 24.1952C417.005 25.644 415.283 27.7127 414.259 30.1398C413.234 32.5668 412.953 35.2432 413.449 37.8304C413.946 40.4176 415.198 42.7994 417.048 44.6748C418.898 46.5502 421.263 47.8348 423.843 48.3662C426.424 48.8976 429.104 48.6519 431.544 47.6603C433.985 46.6686 436.077 44.9755 437.555 42.795C439.034 40.6146 439.832 38.0446 439.85 35.4103C439.885 33.6549 439.568 31.9103 438.917 30.2795C438.267 28.6486 437.297 27.1645 436.064 25.9146C434.831 24.6648 433.36 23.6745 431.738 23.0023C430.116 22.33 428.376 21.9893 426.62 22.0003V22.0003Z" fill="white"></path>
  <path d="M437.54 55.5903H415.7V140.54H437.54V55.5903Z" fill="white"></path>
  <path d="M497.68 54.1602C488.371 54.113 479.308 57.1435 471.9 62.7803V55.5903H450.11V165.48H471.95V133.36C479.344 138.99 488.387 142.026 497.68 142C509.326 142 520.494 137.374 528.729 129.139C536.964 120.905 541.59 109.736 541.59 98.0903C541.59 86.4446 536.964 75.2759 528.729 67.0412C520.494 58.8065 509.326 54.1802 497.68 54.1802V54.1602ZM495.75 121.92C491.031 121.92 486.417 120.521 482.493 117.898C478.569 115.276 475.511 111.549 473.705 107.189C471.9 102.828 471.428 98.0304 472.349 93.4017C473.271 88.7731 475.544 84.5216 478.882 81.1851C482.22 77.8486 486.472 75.577 491.101 74.6575C495.73 73.738 500.528 74.2119 504.888 76.0193C509.247 77.8268 512.973 80.8865 515.594 84.8116C518.214 88.7367 519.612 93.3508 519.61 98.0702C519.61 101.203 518.993 104.305 517.794 107.2C516.594 110.094 514.837 112.723 512.621 114.938C510.405 117.153 507.775 118.91 504.88 120.108C501.985 121.306 498.883 121.922 495.75 121.92V121.92Z" fill="white"></path>
  <path d="M921.25 90.6202L908.51 87.1202C900.13 84.9402 896.86 82.3602 896.86 77.9302C896.86 73.5002 901.45 70.6002 908.02 70.6002C914.28 70.6002 919.18 74.7002 919.18 79.9302V80.4202H939.31V79.9302C939.31 64.5102 926.74 54.1602 908.02 54.1602C889.48 54.1602 876.02 64.5102 876.02 78.7702C876.02 89.8602 883.38 98.2202 896.2 101.69L908.41 105C917.68 107.57 921.12 110.42 921.12 115.52C921.12 120.9 916.12 124.52 908.73 124.52C900.99 124.52 895.8 119.63 895.8 112.36V111.87H874.43V112.36C874.43 129.79 888.43 141.96 908.55 141.96C927.91 141.96 941.96 130.07 941.96 113.69C941.96 105.69 938.37 95.1802 921.25 90.6202Z" fill="white"></path>
  <path d="M619.11 62.7803C611.702 57.1435 602.639 54.113 593.33 54.1602C581.684 54.1602 570.516 58.7865 562.281 67.0212C554.046 75.2559 549.42 86.4246 549.42 98.0702C549.42 109.716 554.046 120.885 562.281 129.119C570.516 137.354 581.684 141.98 593.33 141.98C602.638 142.023 611.7 138.993 619.11 133.36V140.55H640.95V55.5502H619.11V62.7803ZM619.11 98.0702C619.11 102.79 617.71 107.403 615.088 111.327C612.466 115.251 608.739 118.309 604.378 120.115C600.018 121.921 595.22 122.393 590.591 121.471C585.963 120.55 581.711 118.276 578.375 114.938C575.038 111.6 572.767 107.348 571.847 102.719C570.928 98.0899 571.402 93.2922 573.209 88.9325C575.016 84.5728 578.076 80.8471 582.001 78.2265C585.926 75.6059 590.54 74.2083 595.26 74.2103C598.393 74.2103 601.495 74.8275 604.389 76.0267C607.283 77.2259 609.913 78.9835 612.128 81.1993C614.343 83.415 616.099 86.0454 617.297 88.9402C618.495 91.835 619.111 94.9374 619.11 98.0702V98.0702Z" fill="white"></path>
  <path d="M719.79 62.7802C712.385 57.1448 703.325 54.1143 694.02 54.1601C682.374 54.1601 671.206 58.7863 662.971 67.0211C654.736 75.2558 650.11 86.4245 650.11 98.0701C650.11 109.716 654.736 120.884 662.971 129.119C671.206 137.354 682.374 141.98 694.02 141.98C703.324 142.021 712.382 138.991 719.79 133.36V140.55H741.63V25.3501H719.79V62.7802ZM695.94 121.92C691.22 121.922 686.606 120.524 682.68 117.903C678.755 115.282 675.695 111.556 673.888 107.196C672.081 102.835 671.608 98.037 672.528 93.4077C673.448 88.7784 675.721 84.526 679.058 81.1885C682.396 77.8511 686.648 75.5784 691.278 74.6581C695.907 73.7378 700.705 74.2111 705.065 76.0182C709.426 77.8254 713.152 80.8851 715.773 84.8104C718.394 88.7357 719.792 93.3502 719.79 98.0701C719.79 104.396 717.277 110.462 712.805 114.935C708.332 119.407 702.265 121.92 695.94 121.92V121.92Z" fill="white"></path>
  <path d="M864.9 55.5903H843.06V140.54H864.9V55.5903Z" fill="white"></path>
  <path d="M853.98 22.0003C851.346 21.9826 848.765 22.7464 846.565 24.1952C844.365 25.644 842.643 27.7127 841.619 30.1398C840.594 32.5668 840.313 35.2432 840.809 37.8304C841.305 40.4176 842.558 42.7994 844.408 44.6748C846.258 46.5502 848.623 47.8348 851.203 48.3662C853.784 48.8976 856.464 48.6519 858.904 47.6603C861.345 46.6686 863.437 44.9755 864.915 42.795C866.394 40.6146 867.192 38.0446 867.21 35.4103C867.245 33.6549 866.928 31.9103 866.277 30.2795C865.627 28.6486 864.657 27.1645 863.424 25.9146C862.191 24.6648 860.72 23.6745 859.098 23.0023C857.476 22.33 855.736 21.9893 853.98 22.0003Z" fill="white"></path>
  <path d="M992.47 54.1602C983.785 54.1602 975.296 56.7355 968.075 61.5604C960.854 66.3853 955.226 73.243 951.902 81.2665C948.579 89.29 947.709 98.1189 949.404 106.637C951.098 115.154 955.28 122.978 961.421 129.119C967.562 135.26 975.386 139.442 983.904 141.136C992.421 142.831 1001.25 141.961 1009.27 138.638C1017.3 135.314 1024.15 129.686 1028.98 122.465C1033.8 115.244 1036.38 106.755 1036.38 98.0702C1036.38 86.4245 1031.75 75.2558 1023.52 67.0211C1015.28 58.7864 1004.12 54.1602 992.47 54.1602V54.1602ZM992.47 121.92C987.75 121.922 983.136 120.524 979.21 117.903C975.285 115.282 972.225 111.556 970.418 107.196C968.611 102.835 968.138 98.0371 969.058 93.4078C969.978 88.7785 972.251 84.5261 975.588 81.1886C978.926 77.8511 983.178 75.5785 987.808 74.6581C992.437 73.7378 997.235 74.2112 1001.6 76.0183C1005.96 77.8255 1009.68 80.8852 1012.3 84.8105C1014.92 88.7358 1016.32 93.3503 1016.32 98.0702C1016.32 104.396 1013.81 110.462 1009.33 114.935C1004.86 119.407 998.795 121.92 992.47 121.92V121.92Z" fill="white"></path>
  <path d="M367.79 25.3501H284V44.8401H315.02V140.55H336.78V44.8401H367.79V25.3501Z" fill="white"></path>
  <path d="M791.55 117.28L772.13 55.5903H749.18L778.32 140.55H804.61L833.92 55.5903H810.98L791.55 117.28Z" fill="white"></path>
  <path d="M1095.51 75.8503V55.5903H1085.28C1077.28 55.5903 1070.28 59.7703 1068.39 69.8703V55.5903H1046.5V140.59H1068.39V89.6103C1068.39 80.3803 1074.31 75.8503 1083.54 75.8503H1095.51Z" fill="white"></path>
</svg>
